PathFileType	4	(X/Y/Z)	OpenSim_Sub09_CSBaseline_Gyro.trc
DataRate	CameraRate	NumFrames	NumMarkers	Units	OrigDataRate	OrigDataStartFrame	OrigNumFrames
100	100	34	8	m	100	1461	5840
Frame#	Time	torso_imu_offset_imu	pelvis_imu_offset_imu	tibia_r_imu_offset_imu	femur_r_imu_offset_imu	tibia_l_imu_offset_imu	femur_l_imu_offset_imu	toes_r_imu_offset_imu	toes_l_imu_offset_imu
				X1	Y1	Z1	X2	Y2	Z2	X3	Y3	Z3	X4	Y4	Z4	X5	Y5	Z5	X6	Y6	Z6	X7	Y7	Z7	X8		Y8	Z8	

1461	14.60000000	-0.07970395	-0.24883085	-0.01036755	-0.11508064	0.27922593	0.30526445	0.41270401	0.92927506	4.46684033	0.58569332	0.30947562	0.61465656	-0.30524184	-0.24613179	0.35853999	0.53343815	0.02608072	0.73868391	-1.20796408	3.97441324	2.68351995	-0.09866886	-0.00622838	0.10235910
1462	14.61000000	-0.07657381	-0.23526525	-0.01336504	-0.12507226	0.26707040	0.27231441	0.40561473	1.07170763	4.56595634	0.49686874	0.26578943	0.51719809	-0.20552549	-0.29871203	0.36850117	0.40166244	0.07459000	0.77162907	-1.23867421	3.81599531	2.68178500	-0.09899853	-0.00424202	0.10183560
1463	14.62000000	-0.06846834	-0.23449393	-0.00999915	-0.12262317	0.24991167	0.22102822	0.37910520	1.28003848	4.55674253	0.41231594	0.21916068	0.40370485	-0.02338011	-0.27656807	0.37876479	0.23574073	0.09275325	0.79642196	-1.17502536	3.72096109	2.59896276	-0.10648155	-0.01742945	0.10736589
1464	14.63000000	-0.05852048	-0.23515051	-0.01059289	-0.10670169	0.23106094	0.16158395	0.17460093	1.46117394	4.44341195	0.35751115	0.15997851	0.28316314	0.13540999	-0.24463702	0.38531677	0.06221894	0.07202590	0.81484833	-0.97401402	3.70078189	2.43917222	-0.09796734	-0.02195934	0.11772294
1465	14.64000000	-0.04513815	-0.23455531	-0.00540363	-0.08770844	0.20076246	0.08950249	-0.10054072	1.62611351	4.40908416	0.31137411	0.09297078	0.14446088	0.20240414	-0.21677367	0.41834843	-0.10616193	0.02636776	0.83965899	-0.74232872	3.70599679	2.21071457	-0.09688088	-0.02143297	0.12216772
1466	14.65000000	-0.02579566	-0.23327874	-0.00226290	-0.06005862	0.17445378	0.01935425	-0.36773205	1.76536325	4.55138417	0.21210708	0.00250626	0.03168680	0.19121352	-0.15230486	0.47329716	-0.25985918	-0.03973686	0.87031739	-0.53803608	3.75052484	1.94073779	-0.07659623	-0.01893623	0.11902602
1467	14.66000000	-0.00146915	-0.23328748	-0.00031877	-0.03875182	0.15384147	-0.03711684	-0.59095312	1.79922753	4.66465467	0.09634912	-0.10883582	-0.06884953	0.13734511	-0.10272687	0.50885349	-0.34107825	-0.12579128	0.87025721	-0.41812506	3.82503093	1.64188323	-0.06120883	-0.02591397	0.12867287
1468	14.67000000	0.01479667	-0.23408839	0.00173865	-0.03147650	0.13645629	-0.07950650	-0.61770066	1.71636625	4.61209505	0.00176560	-0.21377713	-0.17999111	0.10297147	-0.09703206	0.53083150	-0.39516498	-0.20232125	0.87328373	-0.41573931	3.89344913	1.33806882	-0.07691843	-0.02405654	0.15111294
1469	14.68000000	0.03834522	-0.22691619	-0.00577366	-0.01676474	0.13378770	-0.10128013	-0.41107934	1.63872873	4.45230189	-0.02683075	-0.31204430	-0.28708118	0.10196916	-0.05174769	0.56769692	-0.39482733	-0.26245738	0.85171662	-0.43782970	3.97703372	1.08651371	-0.07886030	-0.01110523	0.16968731
1470	14.69000000	0.04874210	-0.22169298	-0.00915238	-0.01032878	0.12184197	-0.11620582	-0.32405220	1.57349673	4.30811632	0.00468479	-0.39180976	-0.37454769	0.15522011	-0.03880954	0.62974717	-0.37924074	-0.27426856	0.83091384	-0.36239511	4.05473428	0.93425933	-0.06952179	-0.02910933	0.17873605
1471	14.70000000	0.05725231	-0.20592730	-0.00853526	0.01405540	0.11777543	-0.12926317	-0.17152262	1.66624010	4.19091952	0.07487537	-0.43593147	-0.42912819	0.24152474	0.03113846	0.69261335	-0.33307085	-0.27331230	0.80157650	-0.27855136	4.13356774	0.91437637	-0.05559189	-0.05011618	0.18340711
1472	14.71000000	0.06651984	-0.18795360	-0.00501953	0.03978633	0.10523705	-0.13420249	0.04233415	1.77715522	4.04879697	0.18616625	-0.43904976	-0.43264849	0.32061704	0.04321542	0.73873477	-0.28404816	-0.28071523	0.76839207	-0.21420436	4.21437427	0.98943577	-0.06821035	-0.04736567	0.21751730
1473	14.72000000	0.07433683	-0.17686741	0.00563339	0.06402613	0.08306273	-0.13096495	-0.11472855	1.75177429	3.92572747	0.32699101	-0.39698031	-0.41903264	0.31990136	0.04590113	0.76766720	-0.20736690	-0.28082604	0.75077900	-0.14170238	4.21671403	1.11334923	-0.06943325	-0.04375846	0.25562624
1474	14.73000000	0.07896852	-0.16709406	0.01734138	0.09513693	0.05657848	-0.12701236	-0.33792758	1.61284905	3.77597276	0.44139427	-0.30794024	-0.38711422	0.30030827	0.04870514	0.80906828	-0.13849939	-0.22364064	0.73929358	-0.10472791	4.07980325	1.25251699	-0.07777555	-0.03836967	0.28934541
1475	14.74000000	0.08230742	-0.15638878	0.03099444	0.11477493	0.02086293	-0.11243400	-0.42087138	1.41228456	3.56432328	0.49639241	-0.21331317	-0.34243288	0.23942126	0.06940917	0.83554866	-0.08276047	-0.14228866	0.72919276	-0.12949086	3.82448625	1.38604134	-0.07039182	-0.02710036	0.29602221
1476	14.75000000	0.09108708	-0.14664877	0.04064415	0.13402065	-0.01087904	-0.09055978	-0.42160633	1.21162874	3.36771741	0.52309702	-0.15584993	-0.28890860	0.14449969	0.09032867	0.85754264	0.01827768	-0.10292840	0.72818372	-0.17925261	3.54055391	1.51690322	-0.07252477	-0.04700676	0.29207524
1477	14.76000000	0.10368484	-0.12362320	0.05481038	0.13521538	-0.03805154	-0.07133450	-0.32128093	1.07736297	3.21461416	0.56655077	-0.13706925	-0.23626447	0.08172996	0.12956750	0.86655611	0.08888190	-0.07531098	0.72545222	-0.20869046	3.27833619	1.59553998	-0.07479542	-0.07139566	0.28203152
1478	14.77000000	0.09995764	-0.11024693	0.07143841	0.14027122	-0.05054832	-0.05291801	-0.21768432	1.01658930	3.05155173	0.61366519	-0.10183006	-0.20425009	0.07919461	0.12887587	0.89117180	0.11573769	-0.01181382	0.72276554	-0.25091840	2.98152983	1.63549562	-0.07927366	-0.09631529	0.28389832
1479	14.78000000	0.09662000	-0.08666078	0.08041812	0.13653853	-0.05740785	-0.02299444	-0.08306916	0.99423333	2.78768824	0.62793660	-0.04849947	-0.17466830	0.08924477	0.14547178	0.92120142	0.12448989	0.02833960	0.71968039	-0.44472860	2.61230637	1.64662314	-0.08573150	-0.11368912	0.30153899
1480	14.79000000	0.08702577	-0.06964547	0.09777167	0.10878357	-0.06161950	-0.00067742	-0.00286154	0.94805096	2.39739829	0.61487836	0.03370194	-0.14207782	0.09046918	0.15329021	0.95663856	0.11719038	0.04537145	0.72993794	-0.60826054	2.17313391	1.59862022	-0.10131652	-0.15403965	0.32860561
1481	14.80000000	0.07636521	-0.04729733	0.11231051	0.09232408	-0.05651959	0.01555812	-0.07961959	0.82614116	1.95825468	0.54775135	0.11752665	-0.09777874	0.12896455	0.15145239	0.97694783	0.10068357	0.07433787	0.69625051	-0.53102733	1.72316346	1.45513767	-0.14378666	-0.19030825	0.37928649
1482	14.81000000	0.06194718	-0.02947452	0.12612894	0.09334095	-0.05390279	0.02962925	-0.27983979	0.64090091	1.48535980	0.40611461	0.18378884	-0.02171189	0.15679439	0.17624584	0.99382504	0.07674050	0.08698870	0.67848264	-0.27660844	1.24685921	1.21893671	-0.17699668	-0.23230086	0.42450510
1483	14.82000000	0.05006908	-0.01665593	0.13486354	0.10052845	-0.06289568	0.04325135	-0.32529001	0.42703511	0.93759016	0.24156991	0.21861777	0.07481452	0.18216696	0.20305834	1.05398563	0.05231957	0.06320455	0.66925869	-0.02095845	0.72654523	0.93430556	-0.18003043	-0.29125722	0.44741067
1484	14.83000000	0.04998817	-0.00821540	0.14820930	0.12574247	-0.07261934	0.05717248	-0.19552027	0.21335592	0.34894888	0.11865991	0.23112813	0.16967940	0.28493315	0.26699739	1.10784289	0.08370173	0.06827262	0.63337104	0.16209784	0.18251964	0.62495227	-0.16994070	-0.33843994	0.45903956
1485	14.84000000	0.05705707	-0.00347375	0.14445210	0.18114669	-0.05980171	0.07573053	0.08058603	0.04443329	-0.15634477	0.07328693	0.22265114	0.25439008	0.30900240	0.31246135	1.16188163	0.11638120	0.07564524	0.59416651	0.23971130	-0.33437432	0.32930016	-0.18049587	-0.40637283	0.47970870
1486	14.85000000	0.06778186	0.00216352	0.13923124	0.26045763	-0.05655209	0.09228534	0.48014072	-0.05437780	-0.50464900	0.09825013	0.18839176	0.31056141	0.38387646	0.37983100	1.21634241	0.14294198	0.08670922	0.54901316	0.24191869	-0.74144186	0.10536426	-0.14160180	-0.51009534	0.47285494
1487	14.86000000	0.09015534	0.01123713	0.13614874	0.35766069	-0.06131038	0.10939608	0.79676242	-0.13662524	-0.73420825	0.10543747	0.10489564	0.32891909	0.47224852	0.38454538	1.30243612	0.24270059	0.13368211	0.48037000	0.19681447	-1.02085943	-0.03729062	-0.11808598	-0.63730701	0.45520247
1488	14.87000000	0.11501487	0.03577277	0.14168479	0.46765670	-0.08417174	0.11882194	0.89394334	-0.26623242	-0.90551580	0.03371948	-0.02690390	0.31120431	0.44389425	0.40878675	1.38327334	0.36570825	0.18966638	0.39844793	0.15020989	-1.19522674	-0.12043987	-0.12431436	-0.76923905	0.46706492
1489	14.88000000	0.15057313	0.07537748	0.14416874	0.58126771	-0.12708458	0.12415428	0.82178288	-0.40813896	-1.05410473	-0.07508354	-0.17818662	0.30803570	0.39548914	0.36804934	1.43650813	0.51867373	0.22674825	0.35047984	0.15239458	-1.31981793	-0.16009429	-0.13536826	-0.89964355	0.52888406
1490	14.89000000	0.18559623	0.13072086	0.15468694	0.66506013	-0.18107991	0.12144867	0.75655958	-0.52564495	-1.18451593	-0.15885013	-0.31672209	0.29954512	0.40119976	0.32898630	1.44974792	0.69435760	0.24253558	0.34149477	0.20493868	-1.41710815	-0.14612092	-0.14551780	-1.03486357	0.59815021
1491	14.90000000	0.22217633	0.20116047	0.15819305	0.72076718	-0.23912780	0.10891940	0.78177369	-0.61591854	-1.28711780	-0.18675825	-0.44928396	0.23060166	0.46233815	0.30787437	1.49641017	0.81762477	0.30152714	0.33497758	0.27487100	-1.50489577	-0.08383578	-0.14833340	-1.18182064	0.63324294
1492	14.91000000	0.26621194	0.28126559	0.15537229	0.75770228	-0.30321024	0.08248868	0.83038719	-0.66197538	-1.35256405	-0.21027098	-0.57748028	0.10017852	0.59220402	0.32416191	1.56015465	0.89579019	0.37352879	0.35297847	0.29427060	-1.61916501	0.05012554	-0.15051847	-1.34714884	0.65499648
1493	14.92000000	0.30028992	0.37224355	0.16131385	0.77325262	-0.36303101	0.06595193	0.86286639	-0.69732447	-1.41416168	-0.25601684	-0.69366734	-0.06210088	0.73168680	0.36190170	1.62061480	0.97402919	0.44796317	0.38528231	0.44254307	-1.77185618	-0.01074526	-0.13545055	-1.49534751	0.65130282
1494	14.93000000	0.32953744	0.45367216	0.16508244	0.80875797	-0.36849275	0.05276125	0.94505636	-0.85604649	-1.50269290	-0.31361281	-0.81194086	-0.21935968	0.85292816	0.40533345	1.67437067	1.03304893	0.54367279	0.41496308	0.13216514	-2.95138001	0.05082988	-0.10057340	-1.68367941	0.64686977
